<svg xmlns="http://www.w3.org/2000/svg" viewBox="0 0 136.05 194.63"><defs><style>.cls-1{fill:#fff;stroke-width:3px;}.cls-1,.cls-2{stroke:#000;stroke-miterlimit:10;}.cls-2{stroke-width:5px;}</style></defs><g id="Layer_2" data-name="Layer 2"><g id="Layer_1-2" data-name="Layer 1"><path class="cls-1" d="M93.44,142.89l9.08,18.84s0,0,0,0l9.27-4.47a13.72,13.72,0,0,1,18.3,6.05,13.42,13.42,0,0,1-6.26,18l-19.38,9.33a10.62,10.62,0,0,1-1.21.5l0,0a11.59,11.59,0,0,1-1.15.63,13.43,13.43,0,0,1-17.93-6.27L50.54,115.73a43.26,43.26,0,1,1,24.2-11.66l7,14.55s0,0,0,0l9.27-4.46c6.66-3.21,15.11-.58,18.32,6.08a13.43,13.43,0,0,1-6.27,17.93l-9.66,4.66S93.43,142.87,93.44,142.89Z" transform="translate(0)"/><circle class="cls-1" cx="44.92" cy="73.12" r="14.9"/><path class="cls-1" d="M93.55,141.88l9.08,18.85s0,0,0,0l9.27-4.47a13.71,13.71,0,0,1,18.3,6.05,13.41,13.41,0,0,1-6.26,18l-19.38,9.34a10.62,10.62,0,0,1-1.21.5l0,0a12.83,12.83,0,0,1-1.15.63,13.43,13.43,0,0,1-17.93-6.27L50.65,114.73a43.28,43.28,0,1,1,24.2-11.67l7,14.56s0,0,0,0l9.26-4.46c6.67-3.22,15.12-.58,18.33,6.08a13.43,13.43,0,0,1-6.27,17.93l-9.66,4.65S93.54,141.87,93.55,141.88Z" transform="translate(0)"/><circle class="cls-1" cx="45.03" cy="72.12" r="14.9"/><path class="cls-1" d="M93.66,140.88l9.08,18.85s0,0,0,0l9.27-4.46a13.71,13.71,0,0,1,18.3,6.05,13.41,13.41,0,0,1-6.26,18l-19.38,9.34a10.62,10.62,0,0,1-1.21.5l0,0a12.83,12.83,0,0,1-1.15.63,13.44,13.44,0,0,1-17.93-6.27L50.76,113.73A43.28,43.28,0,1,1,75,102.06l7,14.56s0,0,0,0l9.26-4.46c6.67-3.21,15.12-.57,18.33,6.08a13.44,13.44,0,0,1-6.27,17.94l-9.66,4.65S93.65,140.86,93.66,140.88Z" transform="translate(0)"/><circle class="cls-1" cx="45.14" cy="71.11" r="14.9"/><path class="cls-1" d="M93.77,139.88l9.08,18.85s0,0,0,0l9.27-4.46a13.7,13.7,0,0,1,18.3,6.05,13.43,13.43,0,0,1-6.26,18l-19.38,9.33a10.68,10.68,0,0,1-1.21.51l0,0a12.83,12.83,0,0,1-1.15.63,13.44,13.44,0,0,1-17.93-6.27L50.87,112.73a43.28,43.28,0,1,1,24.2-11.67l7,14.56s0,0,0,0l9.26-4.46c6.67-3.21,15.12-.58,18.33,6.08a13.44,13.44,0,0,1-6.27,17.94l-9.66,4.65S93.76,139.86,93.77,139.88Z" transform="translate(0)"/><circle class="cls-1" cx="45.25" cy="70.11" r="14.9"/><path class="cls-1" d="M93.88,138.88,103,157.73s0,0,0,0l9.27-4.46a13.7,13.7,0,0,1,18.3,6,13.44,13.44,0,0,1-6.26,18l-19.38,9.33a10.68,10.68,0,0,1-1.21.51l0,0a12.93,12.93,0,0,1-1.15.64,13.44,13.44,0,0,1-17.93-6.28L51,111.73a43.28,43.28,0,1,1,24.2-11.67l7,14.56s0,0,0,0l9.26-4.46c6.67-3.21,15.12-.58,18.33,6.08a13.45,13.45,0,0,1-6.27,17.94l-9.66,4.65S93.87,138.86,93.88,138.88Z" transform="translate(0)"/><circle class="cls-1" cx="45.35" cy="69.11" r="14.9"/><path class="cls-1" d="M94,137.88l9.08,18.84s0,0,0,0l9.27-4.47c6.74-3.24,15-.67,18.29,6a13.43,13.43,0,0,1-6.25,18L105,185.62a12.89,12.89,0,0,1-1.21.51l0,0a12.83,12.83,0,0,1-1.15.63,13.43,13.43,0,0,1-17.93-6.27L51.09,110.73a43.28,43.28,0,1,1,24.2-11.67l7,14.55s0,0,0,0l9.26-4.46c6.67-3.21,15.12-.58,18.33,6.08a13.45,13.45,0,0,1-6.27,17.94L94,137.84S94,137.86,94,137.88Z" transform="translate(0)"/><circle class="cls-1" cx="45.46" cy="68.11" r="14.9"/><path class="cls-1" d="M94.1,136.88l9.08,18.84s0,0,0,0l9.27-4.47a13.7,13.7,0,0,1,18.29,6,13.41,13.41,0,0,1-6.25,18l-19.38,9.34a11.43,11.43,0,0,1-1.21.5l0,0a12.83,12.83,0,0,1-1.15.63,13.43,13.43,0,0,1-17.93-6.27L51.2,109.72A43.28,43.28,0,1,1,75.4,98.05l7,14.56s0,0,0,0l9.26-4.46c6.67-3.22,15.12-.58,18.33,6.08a13.43,13.43,0,0,1-6.27,17.93l-9.66,4.66S94.09,136.86,94.1,136.88Z" transform="translate(0)"/><circle class="cls-1" cx="45.57" cy="67.11" r="14.9"/><path class="cls-1" d="M94.21,135.87l9.08,18.85s0,0,0,0l9.27-4.46a13.7,13.7,0,0,1,18.29,6,13.41,13.41,0,0,1-6.25,18l-19.38,9.34a11.43,11.43,0,0,1-1.21.5l0,0a12.83,12.83,0,0,1-1.15.63,13.43,13.43,0,0,1-17.93-6.27L51.3,108.72A43.28,43.28,0,1,1,75.51,97.05l7,14.56s0,0,0,0l9.26-4.47c6.67-3.21,15.12-.57,18.33,6.08a13.44,13.44,0,0,1-6.27,17.94l-9.66,4.65A0,0,0,0,0,94.21,135.87Z" transform="translate(0)"/><circle class="cls-1" cx="45.68" cy="66.1" r="14.9"/><path class="cls-1" d="M94.32,134.87l9.08,18.85s0,0,0,0l9.27-4.46a13.7,13.7,0,0,1,18.29,6,13.41,13.41,0,0,1-6.25,18l-19.38,9.33a9.72,9.72,0,0,1-1.21.51l0,0a12.83,12.83,0,0,1-1.15.63A13.44,13.44,0,0,1,85,177.51L51.41,107.72A43.28,43.28,0,1,1,75.62,96.05l7,14.56s0,0,0,0l9.26-4.46c6.67-3.21,15.12-.58,18.33,6.08A13.44,13.44,0,0,1,104,130.18l-9.66,4.65S94.31,134.85,94.32,134.87Z" transform="translate(0)"/><circle class="cls-1" cx="45.79" cy="65.1" r="14.9"/><path class="cls-1" d="M94.43,133.87l9.08,18.85s0,0,0,0l9.27-4.46a13.7,13.7,0,0,1,18.29,6,13.42,13.42,0,0,1-6.25,18l-19.38,9.33a11.51,11.51,0,0,1-1.21.51l0,0a12.93,12.93,0,0,1-1.15.64,13.44,13.44,0,0,1-17.93-6.28L51.52,106.72A43.28,43.28,0,1,1,75.73,95.05l7,14.56s0,0,0,0L92,105.16c6.67-3.21,15.12-.58,18.33,6.08a13.44,13.44,0,0,1-6.27,17.94l-9.66,4.65S94.42,133.85,94.43,133.87Z" transform="translate(0)"/><circle class="cls-1" cx="45.9" cy="64.1" r="14.9"/><path class="cls-1" d="M94.54,132.87l9.07,18.85s0,0,0,0l9.28-4.47a13.71,13.71,0,0,1,18.29,6.05,13.43,13.43,0,0,1-6.25,18l-19.38,9.33c-.4.19-.8.36-1.21.51l0,0a12.83,12.83,0,0,1-1.15.63,13.43,13.43,0,0,1-17.93-6.27L51.63,105.72A43.28,43.28,0,1,1,75.84,94.05l7,14.56s0,0,0,0l9.26-4.46c6.67-3.21,15.12-.58,18.33,6.08a13.45,13.45,0,0,1-6.27,17.94l-9.66,4.65S94.53,132.85,94.54,132.87Z" transform="translate(0)"/><circle class="cls-1" cx="46.01" cy="63.1" r="14.9"/><path class="cls-1" d="M94.65,131.87l9.07,18.84s0,0,0,0l9.28-4.47a13.71,13.71,0,0,1,18.29,6.05,13.41,13.41,0,0,1-6.25,18l-19.38,9.34a11.43,11.43,0,0,1-1.21.5l-.06,0a11.43,11.43,0,0,1-1.14.63,13.43,13.43,0,0,1-17.93-6.27L51.74,104.71A43.27,43.27,0,1,1,76,93l7,14.56s0,0,0,0l9.26-4.46c6.67-3.21,15.12-.58,18.33,6.08a13.43,13.43,0,0,1-6.27,17.93l-9.66,4.66S94.64,131.85,94.65,131.87Z" transform="translate(0)"/><circle class="cls-1" cx="46.12" cy="62.1" r="14.9"/><path class="cls-1" d="M94.76,130.86l9.07,18.85a0,0,0,0,0,0,0l9.27-4.47a13.71,13.71,0,0,1,18.3,6.05,13.41,13.41,0,0,1-6.25,18l-19.38,9.34a11.43,11.43,0,0,1-1.21.5l-.06,0a10.56,10.56,0,0,1-1.15.63,13.43,13.43,0,0,1-17.92-6.27L51.85,103.71A43.28,43.28,0,1,1,76.06,92l7,14.56s0,0,0,0l9.26-4.47c6.67-3.21,15.12-.57,18.33,6.09a13.43,13.43,0,0,1-6.27,17.93l-9.66,4.65A0,0,0,0,0,94.76,130.86Z" transform="translate(0)"/><circle class="cls-1" cx="46.23" cy="61.1" r="14.9"/><path class="cls-1" d="M94.87,129.86l9.07,18.85a0,0,0,0,0,0,0l9.27-4.46a13.71,13.71,0,0,1,18.3,6.05,13.41,13.41,0,0,1-6.25,18l-19.38,9.34a11.43,11.43,0,0,1-1.21.5l-.06,0a10.56,10.56,0,0,1-1.15.63,13.43,13.43,0,0,1-17.92-6.27L52,102.71A43.28,43.28,0,1,1,76.17,91l7,14.56s0,0,0,0l9.26-4.46c6.67-3.21,15.12-.57,18.32,6.08a13.42,13.42,0,0,1-6.26,17.94l-9.66,4.65S94.86,129.84,94.87,129.86Z" transform="translate(0)"/><circle class="cls-1" cx="46.34" cy="60.09" r="14.9"/><path class="cls-1" d="M95,128.86l9.07,18.85a0,0,0,0,0,0,0l9.27-4.46a13.7,13.7,0,0,1,18.3,6.05,13.41,13.41,0,0,1-6.25,18L106,176.6a11.51,11.51,0,0,1-1.21.51l-.06,0a9.16,9.16,0,0,1-1.15.64,13.43,13.43,0,0,1-17.92-6.28L52.07,101.71A43.28,43.28,0,1,1,76.28,90l7,14.56s0,0,0,0l9.26-4.46c6.67-3.21,15.12-.58,18.32,6.08a13.42,13.42,0,0,1-6.26,17.94L95,128.82S95,128.84,95,128.86Z" transform="translate(0)"/><circle class="cls-1" cx="46.45" cy="59.09" r="14.9"/><path class="cls-1" d="M95.08,127.86l9.08,18.85s0,0,0,0l9.27-4.47a13.72,13.72,0,0,1,18.3,6.05,13.43,13.43,0,0,1-6.25,18l-19.38,9.33a11.51,11.51,0,0,1-1.21.51l-.06,0a10.56,10.56,0,0,1-1.15.63,13.42,13.42,0,0,1-17.92-6.27L52.18,100.71A43.28,43.28,0,1,1,76.39,89l7,14.56s0,0,0,0l9.26-4.46c6.67-3.21,15.12-.58,18.32,6.08a13.43,13.43,0,0,1-6.26,17.94l-9.66,4.65S95.08,127.84,95.08,127.86Z" transform="translate(0)"/><circle class="cls-1" cx="46.56" cy="58.09" r="14.9"/><path class="cls-1" d="M95.19,126.86l9.08,18.84s0,0,0,0l9.27-4.47a13.72,13.72,0,0,1,18.3,6.05,13.43,13.43,0,0,1-6.25,18l-19.38,9.33c-.4.19-.8.36-1.21.51l-.06,0a10.56,10.56,0,0,1-1.15.63,13.42,13.42,0,0,1-17.92-6.27L52.29,99.7A43.26,43.26,0,1,1,76.5,88l7,14.55s0,0,0,0l9.26-4.46c6.67-3.21,15.12-.58,18.32,6.08a13.42,13.42,0,0,1-6.26,17.93l-9.66,4.66S95.19,126.84,95.19,126.86Z" transform="translate(0)"/><circle class="cls-1" cx="46.67" cy="57.09" r="14.9"/><path class="cls-1" d="M95.3,125.85l9.08,18.85s0,0,0,0l9.27-4.47A13.71,13.71,0,0,1,132,146.3a13.41,13.41,0,0,1-6.25,18l-19.38,9.34a11.43,11.43,0,0,1-1.21.5l-.06,0a10.56,10.56,0,0,1-1.15.63A13.43,13.43,0,0,1,86,168.49L52.4,98.7A43.28,43.28,0,1,1,76.61,87l7,14.56s0,0,0,0l9.26-4.46c6.67-3.22,15.12-.58,18.32,6.08A13.42,13.42,0,0,1,105,121.16l-9.66,4.65A0,0,0,0,0,95.3,125.85Z" transform="translate(0)"/><circle class="cls-1" cx="46.78" cy="56.09" r="14.9"/><path class="cls-1" d="M95.41,124.85l9.08,18.85s0,0,0,0l9.27-4.46a13.71,13.71,0,0,1,18.3,6.05,13.41,13.41,0,0,1-6.25,18l-19.38,9.34a11.43,11.43,0,0,1-1.21.5l-.06,0a10.56,10.56,0,0,1-1.15.63,13.43,13.43,0,0,1-17.92-6.27L52.51,97.7A43.29,43.29,0,1,1,76.71,86l7,14.56s0,0,0,0L93,96.14c6.67-3.21,15.12-.57,18.32,6.08a13.45,13.45,0,0,1-6.26,17.94l-9.66,4.65S95.41,124.83,95.41,124.85Z" transform="translate(0)"/><circle class="cls-1" cx="46.89" cy="55.08" r="14.9"/><path class="cls-1" d="M95.52,123.85l9.08,18.85s0,0,0,0l9.27-4.46a13.7,13.7,0,0,1,18.3,6.05,13.41,13.41,0,0,1-6.25,18l-19.38,9.33a11.51,11.51,0,0,1-1.21.51l-.06,0a10.56,10.56,0,0,1-1.15.63,13.45,13.45,0,0,1-17.93-6.27L52.62,96.7A43.29,43.29,0,1,1,76.82,85l7,14.56s0,0,0,0l9.26-4.46c6.67-3.21,15.12-.58,18.32,6.08a13.45,13.45,0,0,1-6.26,17.94l-9.66,4.65S95.51,123.83,95.52,123.85Z" transform="translate(0)"/><circle class="cls-1" cx="47" cy="54.08" r="14.9"/><path class="cls-1" d="M95.63,122.85l9.08,18.85s0,0,0,0l9.27-4.46a13.7,13.7,0,0,1,18.3,6,13.43,13.43,0,0,1-6.25,18l-19.38,9.33a11.51,11.51,0,0,1-1.21.51l-.06,0a10.62,10.62,0,0,1-1.15.64,13.44,13.44,0,0,1-17.93-6.28L52.73,95.7A43.29,43.29,0,1,1,76.93,84l7,14.56s0,0,0,0l9.26-4.46c6.67-3.21,15.12-.58,18.32,6.08a13.45,13.45,0,0,1-6.26,17.94l-9.66,4.65S95.62,122.83,95.63,122.85Z" transform="translate(0)"/><circle class="cls-1" cx="47.11" cy="53.08" r="14.9"/><path class="cls-1" d="M95.74,121.85l9.08,18.84s0,0,0,0l9.27-4.47a13.72,13.72,0,0,1,18.3,6,13.43,13.43,0,0,1-6.25,18l-19.38,9.33c-.4.19-.81.36-1.21.51l-.06,0a10.56,10.56,0,0,1-1.15.63,13.43,13.43,0,0,1-17.93-6.27L52.84,94.7A43.29,43.29,0,1,1,77,83l7,14.56s0,0,0,0l9.26-4.46c6.66-3.21,15.12-.58,18.32,6.08a13.45,13.45,0,0,1-6.27,17.94l-9.65,4.65S95.73,121.83,95.74,121.85Z" transform="translate(0)"/><circle class="cls-1" cx="47.22" cy="52.08" r="14.9"/><path class="cls-1" d="M95.85,120.85l9.08,18.84s0,0,0,0l9.27-4.47a13.72,13.72,0,0,1,18.3,6,13.41,13.41,0,0,1-6.26,18l-19.37,9.34a12.37,12.37,0,0,1-1.21.5l-.06,0a10.56,10.56,0,0,1-1.15.63,13.44,13.44,0,0,1-17.93-6.27L53,93.69A43.29,43.29,0,1,1,77.15,82l7,14.56s0,0,0,0l9.26-4.46c6.66-3.22,15.11-.58,18.32,6.08a13.43,13.43,0,0,1-6.27,17.93l-9.65,4.66S95.84,120.83,95.85,120.85Z" transform="translate(0)"/><circle class="cls-1" cx="47.33" cy="51.08" r="14.9"/><path class="cls-1" d="M96,119.84,105,138.69s0,0,0,0l9.27-4.47a13.71,13.71,0,0,1,18.3,6,13.41,13.41,0,0,1-6.26,18L107,167.59a11.59,11.59,0,0,1-1.22.5l0,0a10.56,10.56,0,0,1-1.15.63,13.44,13.44,0,0,1-17.93-6.27L53.06,92.69A43.28,43.28,0,1,1,77.26,81l7,14.56s0,0,0,0l9.26-4.47c6.66-3.21,15.11-.57,18.32,6.08a13.44,13.44,0,0,1-6.27,17.94L96,119.8S96,119.83,96,119.84Z" transform="translate(0)"/><circle class="cls-1" cx="47.44" cy="50.07" r="14.9"/><path class="cls-1" d="M96.07,118.84l9.08,18.85s0,0,0,0l9.27-4.46a13.71,13.71,0,0,1,18.3,6,13.41,13.41,0,0,1-6.26,18l-19.37,9.33a9.85,9.85,0,0,1-1.22.51l0,0a11.59,11.59,0,0,1-1.15.63,13.44,13.44,0,0,1-17.93-6.27L53.17,91.69A43.28,43.28,0,1,1,77.37,80l7,14.56s0,0,0,0l9.26-4.46c6.66-3.21,15.11-.57,18.32,6.08a13.44,13.44,0,0,1-6.27,17.94l-9.65,4.65S96.06,118.82,96.07,118.84Z" transform="translate(0)"/><circle class="cls-1" cx="47.55" cy="49.07" r="14.9"/><path class="cls-1" d="M96.18,117.84l9.08,18.85s0,0,0,0l9.27-4.46a13.7,13.7,0,0,1,18.3,6,13.41,13.41,0,0,1-6.26,18l-19.38,9.33a10.68,10.68,0,0,1-1.21.51l0,0a11.66,11.66,0,0,1-1.15.64,13.44,13.44,0,0,1-17.93-6.28L53.28,90.69A43.28,43.28,0,1,1,77.48,79l7,14.56s0,0,0,0l9.26-4.46c6.66-3.21,15.11-.58,18.32,6.08a13.44,13.44,0,0,1-6.27,17.94L96.2,117.8S96.17,117.82,96.18,117.84Z" transform="translate(0)"/><circle class="cls-1" cx="47.66" cy="48.07" r="14.9"/><path class="cls-1" d="M96.29,116.84l9.08,18.85s0,0,0,0l9.27-4.47a13.72,13.72,0,0,1,18.3,6.05,13.42,13.42,0,0,1-6.26,18l-19.38,9.33a12.89,12.89,0,0,1-1.21.51l0,0a11.59,11.59,0,0,1-1.15.63A13.43,13.43,0,0,1,87,159.47L53.39,89.69A43.28,43.28,0,1,1,77.59,78l7,14.56s0,0,0,0l9.27-4.46c6.66-3.21,15.11-.58,18.32,6.08A13.45,13.45,0,0,1,106,112.15l-9.65,4.65S96.28,116.82,96.29,116.84Z" transform="translate(0)"/><circle class="cls-1" cx="47.77" cy="47.07" r="14.9"/><path class="cls-1" d="M96.4,115.84l9.08,18.84s0,0,0,0l9.27-4.47a13.72,13.72,0,0,1,18.3,6.05,13.41,13.41,0,0,1-6.26,18l-19.38,9.34a10.62,10.62,0,0,1-1.21.5l0,0a11.59,11.59,0,0,1-1.15.63,13.43,13.43,0,0,1-17.93-6.27L53.5,88.68A43.28,43.28,0,1,1,77.7,77l7,14.56s0,0,0,0L94,87.13c6.66-3.21,15.11-.58,18.32,6.08a13.43,13.43,0,0,1-6.27,17.93l-9.66,4.66S96.39,115.82,96.4,115.84Z" transform="translate(0)"/><circle class="cls-1" cx="47.88" cy="46.07" r="14.9"/><path class="cls-1" d="M96.51,114.83l9.08,18.85s0,0,0,0l9.27-4.47a13.71,13.71,0,0,1,18.3,6.05,13.41,13.41,0,0,1-6.26,18l-19.38,9.34a10.62,10.62,0,0,1-1.21.5l0,0a11.59,11.59,0,0,1-1.15.63,13.43,13.43,0,0,1-17.93-6.27L53.61,87.68A43.28,43.28,0,1,1,77.81,76l7,14.56a0,0,0,0,0,0,0l9.27-4.47c6.66-3.21,15.11-.57,18.32,6.09a13.43,13.43,0,0,1-6.27,17.93l-9.66,4.65S96.5,114.82,96.51,114.83Z" transform="translate(0)"/><circle class="cls-1" cx="47.99" cy="45.07" r="14.9"/><circle class="cls-2" cx="47.67" cy="45.36" r="11.84"/></g></g></svg>