<svg xmlns="http://www.w3.org/2000/svg" viewBox="0 0 196.61 187.8"><defs><style>.cls-1,.cls-2{fill:#fff;stroke-miterlimit:10;stroke-width:5px;}.cls-1{stroke:#000;}.cls-2{stroke:#fff;}</style></defs><g id="Layer_2" data-name="Layer 2"><g id="Layer_1-2" data-name="Layer 1"><rect class="cls-1" x="65.32" y="98.66" width="132.41" height="42.56" rx="15.06" transform="translate(-25.43 203.91) rotate(-70.51)"/><rect class="cls-1" x="66.02" y="97.96" width="132.41" height="42.56" rx="15.06" transform="translate(-24.3 204.1) rotate(-70.51)"/><rect class="cls-1" x="66.73" y="97.26" width="132.41" height="42.56" rx="15.06" transform="translate(-23.17 204.3) rotate(-70.51)"/><rect class="cls-1" x="67.43" y="96.56" width="132.41" height="42.56" rx="15.06" transform="matrix(0.33, -0.94, 0.94, 0.33, -22.04, 204.49)"/><rect class="cls-1" x="68.13" y="95.85" width="132.41" height="42.56" rx="15.06" transform="translate(-20.91 204.68) rotate(-70.51)"/><rect class="cls-1" x="68.83" y="95.15" width="132.41" height="42.56" rx="15.06" transform="translate(-19.78 204.88) rotate(-70.51)"/><rect class="cls-1" x="69.54" y="94.45" width="132.41" height="42.56" rx="15.06" transform="translate(-18.65 205.07) rotate(-70.51)"/><rect class="cls-1" x="70.24" y="93.75" width="132.41" height="42.56" rx="15.06" transform="translate(-17.52 205.27) rotate(-70.51)"/><rect class="cls-1" x="70.94" y="93.04" width="132.41" height="42.56" rx="15.06" transform="translate(-16.39 205.46) rotate(-70.51)"/><rect class="cls-1" x="71.65" y="92.34" width="132.41" height="42.56" rx="15.06" transform="translate(-15.26 205.66) rotate(-70.51)"/><rect class="cls-1" x="72.35" y="91.64" width="132.41" height="42.56" rx="15.06" transform="translate(-14.13 205.85) rotate(-70.51)"/><rect class="cls-1" x="73.05" y="90.94" width="132.41" height="42.56" rx="15.06" transform="translate(-13 206.04) rotate(-70.51)"/><rect class="cls-1" x="73.75" y="90.23" width="132.41" height="42.56" rx="15.06" transform="translate(-11.87 206.24) rotate(-70.51)"/><rect class="cls-1" x="74.46" y="89.53" width="132.41" height="42.56" rx="15.06" transform="translate(-10.74 206.43) rotate(-70.51)"/><rect class="cls-1" x="75.16" y="88.83" width="132.41" height="42.56" rx="15.06" transform="translate(-9.61 206.63) rotate(-70.51)"/><rect class="cls-1" x="75.86" y="88.12" width="132.41" height="42.56" rx="15.06" transform="translate(-8.47 206.82) rotate(-70.51)"/><rect class="cls-1" x="76.56" y="87.42" width="132.41" height="42.56" rx="15.06" transform="translate(-7.34 207.01) rotate(-70.51)"/><rect class="cls-1" x="77.27" y="86.72" width="132.41" height="42.56" rx="15.06" transform="translate(-6.21 207.21) rotate(-70.51)"/><rect class="cls-1" x="77.97" y="86.02" width="132.41" height="42.56" rx="15.06" transform="translate(-5.08 207.4) rotate(-70.51)"/><rect class="cls-1" x="78.67" y="85.31" width="132.41" height="42.56" rx="15.06" transform="translate(-3.95 207.6) rotate(-70.51)"/><rect class="cls-1" x="79.37" y="84.61" width="132.41" height="42.56" rx="15.06" transform="translate(-2.82 207.79) rotate(-70.51)"/><rect class="cls-1" x="80.08" y="83.91" width="132.41" height="42.56" rx="15.06" transform="translate(-1.69 207.99) rotate(-70.51)"/><rect class="cls-1" x="80.78" y="83.21" width="132.41" height="42.56" rx="15.06" transform="translate(-0.56 208.18) rotate(-70.51)"/><rect class="cls-1" x="81.48" y="82.5" width="132.41" height="42.56" rx="15.06" transform="translate(0.57 208.37) rotate(-70.51)"/><rect class="cls-1" x="82.18" y="81.8" width="132.41" height="42.56" rx="15.06" transform="translate(1.7 208.57) rotate(-70.51)"/><rect class="cls-1" x="82.89" y="81.1" width="132.41" height="42.56" rx="15.06" transform="translate(2.83 208.76) rotate(-70.51)"/><rect class="cls-1" x="83.59" y="80.4" width="132.41" height="42.56" rx="15.06" transform="translate(3.96 208.96) rotate(-70.51)"/><rect class="cls-1" x="84.29" y="79.69" width="132.41" height="42.56" rx="15.06" transform="translate(5.09 209.15) rotate(-70.51)"/><rect class="cls-1" x="84.99" y="78.99" width="132.41" height="42.56" rx="15.06" transform="translate(6.22 209.35) rotate(-70.51)"/><rect class="cls-1" x="85.7" y="78.29" width="132.41" height="42.56" rx="15.06" transform="translate(7.35 209.54) rotate(-70.51)"/><rect class="cls-1" x="86.4" y="77.59" width="132.41" height="42.56" rx="15.06" transform="translate(8.48 209.73) rotate(-70.51)"/><rect class="cls-1" x="87.1" y="76.88" width="132.41" height="42.56" rx="15.06" transform="translate(9.61 209.93) rotate(-70.51)"/><rect class="cls-1" x="87.81" y="76.18" width="132.41" height="42.56" rx="15.06" transform="translate(10.74 210.12) rotate(-70.51)"/><rect class="cls-1" x="88.51" y="75.48" width="132.41" height="42.56" rx="15.06" transform="translate(11.87 210.32) rotate(-70.51)"/><rect class="cls-1" x="89.21" y="74.78" width="132.41" height="42.56" rx="15.06" transform="translate(13 210.51) rotate(-70.51)"/><rect class="cls-1" x="89.91" y="74.07" width="132.41" height="42.56" rx="15.06" transform="translate(14.13 210.7) rotate(-70.51)"/><path class="cls-2" d="M89.15,166.87,102,162.46A15.92,15.92,0,0,0,112.13,142L74.6,39.36A16.7,16.7,0,0,0,53.46,29.6L40.58,34A15.91,15.91,0,0,0,30.49,54.48L68,157.11A16.69,16.69,0,0,0,89.15,166.87Z"/><path class="cls-2" d="M88.44,166.19l12.89-4.42a15.91,15.91,0,0,0,10.08-20.47L73.89,38.67a16.71,16.71,0,0,0-21.14-9.76L39.86,33.33A15.9,15.9,0,0,0,29.78,53.79L67.3,156.42A16.72,16.72,0,0,0,88.44,166.19Z"/><path class="cls-2" d="M87.73,165.5l12.89-4.42a15.9,15.9,0,0,0,10.08-20.47L73.18,38A16.72,16.72,0,0,0,52,28.22L39.15,32.64A15.89,15.89,0,0,0,29.07,53.1L66.59,155.73A16.71,16.71,0,0,0,87.73,165.5Z"/><path class="cls-2" d="M87,164.81l12.89-4.42A15.9,15.9,0,0,0,110,139.93L72.47,37.3a16.72,16.72,0,0,0-21.14-9.77L38.44,32A15.89,15.89,0,0,0,28.36,52.41L65.88,155A16.71,16.71,0,0,0,87,164.81Z"/><path class="cls-2" d="M86.31,164.12l12.88-4.42a15.9,15.9,0,0,0,10.09-20.46L71.75,36.61a16.7,16.7,0,0,0-21.13-9.77L37.73,31.26A15.91,15.91,0,0,0,27.64,51.72L65.17,154.35A16.71,16.71,0,0,0,86.31,164.12Z"/><path class="cls-2" d="M85.6,163.43,98.48,159a15.9,15.9,0,0,0,10.09-20.46L71,35.92A16.71,16.71,0,0,0,49.9,26.15L37,30.57A15.91,15.91,0,0,0,26.93,51L64.46,153.67A16.71,16.71,0,0,0,85.6,163.43Z"/><path class="cls-2" d="M84.89,162.74l12.88-4.41a15.92,15.92,0,0,0,10.09-20.47L70.33,35.23a16.7,16.7,0,0,0-21.14-9.76L36.31,29.88A15.91,15.91,0,0,0,26.22,50.35L63.75,153A16.71,16.71,0,0,0,84.89,162.74Z"/><path class="cls-2" d="M84.17,162.05l12.89-4.41a15.92,15.92,0,0,0,10.09-20.47L69.62,34.54a16.7,16.7,0,0,0-21.14-9.76L35.6,29.19A15.91,15.91,0,0,0,25.51,49.66L63,152.29A16.69,16.69,0,0,0,84.17,162.05Z"/><path class="cls-2" d="M83.46,161.36,96.35,157a15.91,15.91,0,0,0,10.08-20.47L68.91,33.85a16.7,16.7,0,0,0-21.14-9.76L34.88,28.5A15.91,15.91,0,0,0,24.8,49L62.32,151.6A16.71,16.71,0,0,0,83.46,161.36Z"/><path class="cls-2" d="M82.75,160.67l12.89-4.41a15.91,15.91,0,0,0,10.08-20.47L68.2,33.16A16.71,16.71,0,0,0,47.06,23.4L34.17,27.81A15.91,15.91,0,0,0,24.09,48.28L61.61,150.91A16.7,16.7,0,0,0,82.75,160.67Z"/><path class="cls-2" d="M82,160l12.89-4.42A15.91,15.91,0,0,0,105,135.1L67.49,32.47a16.71,16.71,0,0,0-21.14-9.76L33.46,27.13A15.9,15.9,0,0,0,23.37,47.59L60.9,150.22A16.71,16.71,0,0,0,82,160Z"/><path class="cls-2" d="M81.33,159.3l12.88-4.42a15.9,15.9,0,0,0,10.09-20.46L66.77,31.79A16.71,16.71,0,0,0,45.63,22L32.75,26.44A15.9,15.9,0,0,0,22.66,46.9L60.19,149.53A16.71,16.71,0,0,0,81.33,159.3Z"/><path class="cls-2" d="M80.62,158.61l12.88-4.42a15.9,15.9,0,0,0,10.09-20.46L66.06,31.1a16.71,16.71,0,0,0-21.14-9.77L32,25.75A15.91,15.91,0,0,0,22,46.21L59.48,148.84A16.71,16.71,0,0,0,80.62,158.61Z"/><path class="cls-2" d="M79.91,157.92l12.88-4.42A15.9,15.9,0,0,0,102.88,133L65.35,30.41a16.71,16.71,0,0,0-21.14-9.77L31.33,25.06A15.91,15.91,0,0,0,21.24,45.53L58.77,148.16A16.71,16.71,0,0,0,79.91,157.92Z"/><path class="cls-2" d="M79.19,157.23l12.89-4.42a15.9,15.9,0,0,0,10.09-20.46L64.64,29.72A16.71,16.71,0,0,0,43.5,20L30.61,24.37A15.91,15.91,0,0,0,20.53,44.84L58.05,147.47A16.71,16.71,0,0,0,79.19,157.23Z"/><path class="cls-2" d="M78.48,156.54l12.89-4.41a15.91,15.91,0,0,0,10.08-20.47L63.93,29a16.7,16.7,0,0,0-21.14-9.76L29.9,23.68A15.91,15.91,0,0,0,19.82,44.15L57.34,146.78A16.71,16.71,0,0,0,78.48,156.54Z"/><path class="cls-2" d="M77.77,155.85l12.89-4.41A15.91,15.91,0,0,0,100.74,131L63.22,28.34a16.71,16.71,0,0,0-21.14-9.76L29.19,23A15.91,15.91,0,0,0,19.11,43.46L56.63,146.09A16.7,16.7,0,0,0,77.77,155.85Z"/><path class="cls-2" d="M77.06,155.16,90,150.75A15.91,15.91,0,0,0,100,130.28L62.51,27.65a16.71,16.71,0,0,0-21.14-9.76L28.48,22.3A15.92,15.92,0,0,0,18.39,42.77L55.92,145.4A16.7,16.7,0,0,0,77.06,155.16Z"/><path class="cls-2" d="M76.35,154.48l12.88-4.42a15.91,15.91,0,0,0,10.09-20.47L61.79,27A16.71,16.71,0,0,0,40.65,17.2L27.77,21.62A15.9,15.9,0,0,0,17.68,42.08L55.21,144.71A16.71,16.71,0,0,0,76.35,154.48Z"/><path class="cls-2" d="M75.64,153.79l12.88-4.42a15.91,15.91,0,0,0,10.09-20.46L61.08,26.28a16.71,16.71,0,0,0-21.14-9.77L27.06,20.93A15.9,15.9,0,0,0,17,41.39L54.5,144A16.71,16.71,0,0,0,75.64,153.79Z"/><path class="cls-2" d="M74.93,153.1l12.88-4.42A15.91,15.91,0,0,0,97.9,128.22L60.37,25.59a16.71,16.71,0,0,0-21.14-9.77L26.35,20.24A15.9,15.9,0,0,0,16.26,40.7L53.79,143.33A16.71,16.71,0,0,0,74.93,153.1Z"/><path class="cls-2" d="M74.21,152.41,87.1,148a15.9,15.9,0,0,0,10.09-20.46L59.66,24.9a16.71,16.71,0,0,0-21.14-9.77L25.63,19.55A15.9,15.9,0,0,0,15.55,40L53.07,142.64A16.72,16.72,0,0,0,74.21,152.41Z"/><path class="cls-2" d="M73.5,151.72l12.89-4.42a15.89,15.89,0,0,0,10.08-20.46L59,24.21a16.71,16.71,0,0,0-21.14-9.77L24.92,18.86A15.91,15.91,0,0,0,14.84,39.33L52.36,142A16.71,16.71,0,0,0,73.5,151.72Z"/><path class="cls-2" d="M72.79,151l12.89-4.41a15.91,15.91,0,0,0,10.08-20.47L58.24,23.52A16.71,16.71,0,0,0,37.1,13.76L24.21,18.17A15.91,15.91,0,0,0,14.13,38.64L51.65,141.27A16.7,16.7,0,0,0,72.79,151Z"/><path class="cls-2" d="M72.08,150.34,85,145.93a15.91,15.91,0,0,0,10.09-20.47L57.52,22.83a16.69,16.69,0,0,0-21.13-9.76L23.5,17.48A15.92,15.92,0,0,0,13.41,38L50.94,140.58A16.7,16.7,0,0,0,72.08,150.34Z"/><path class="cls-2" d="M71.37,149.65l12.88-4.41a15.91,15.91,0,0,0,10.09-20.47L56.81,22.14a16.7,16.7,0,0,0-21.14-9.76L22.79,16.79A15.92,15.92,0,0,0,12.7,37.26L50.23,139.89A16.7,16.7,0,0,0,71.37,149.65Z"/><path class="cls-2" d="M70.66,149l12.88-4.42a15.92,15.92,0,0,0,10.09-20.47L56.1,21.45A16.71,16.71,0,0,0,35,11.69L22.08,16.11A15.9,15.9,0,0,0,12,36.57L49.52,139.2A16.71,16.71,0,0,0,70.66,149Z"/><path class="cls-2" d="M69.94,148.28l12.89-4.42a15.91,15.91,0,0,0,10.09-20.47L55.39,20.76A16.72,16.72,0,0,0,34.25,11L21.37,15.42A15.9,15.9,0,0,0,11.28,35.88L48.81,138.51A16.7,16.7,0,0,0,69.94,148.28Z"/><path class="cls-2" d="M69.23,147.59l12.89-4.42A15.89,15.89,0,0,0,92.2,122.71L54.68,20.08a16.71,16.71,0,0,0-21.14-9.77L20.65,14.73A15.9,15.9,0,0,0,10.57,35.19L48.09,137.82A16.72,16.72,0,0,0,69.23,147.59Z"/><path class="cls-2" d="M68.52,146.9l12.89-4.42A15.89,15.89,0,0,0,91.49,122L54,19.39A16.71,16.71,0,0,0,32.83,9.62L19.94,14A15.89,15.89,0,0,0,9.86,34.5L47.38,137.13A16.72,16.72,0,0,0,68.52,146.9Z"/><path class="cls-2" d="M67.81,146.21l12.89-4.42a15.9,15.9,0,0,0,10.08-20.46L53.26,18.7A16.72,16.72,0,0,0,32.12,8.93L19.23,13.35A15.9,15.9,0,0,0,9.15,33.82L46.67,136.45A16.71,16.71,0,0,0,67.81,146.21Z"/><path class="cls-2" d="M67.1,145.52,80,141.11a15.91,15.91,0,0,0,10.09-20.47L52.54,18A16.69,16.69,0,0,0,31.41,8.25L18.52,12.66A15.92,15.92,0,0,0,8.43,33.13L46,135.76A16.71,16.71,0,0,0,67.1,145.52Z"/><path class="cls-2" d="M66.39,144.83l12.88-4.41A15.91,15.91,0,0,0,89.36,120L51.83,17.32A16.7,16.7,0,0,0,30.69,7.56L17.81,12A15.92,15.92,0,0,0,7.72,32.44L45.25,135.07A16.7,16.7,0,0,0,66.39,144.83Z"/><path class="cls-2" d="M65.68,144.14l12.88-4.41a15.92,15.92,0,0,0,10.09-20.47L51.12,16.63A16.7,16.7,0,0,0,30,6.87L17.1,11.28A15.91,15.91,0,0,0,7,31.75L44.54,134.38A16.7,16.7,0,0,0,65.68,144.14Z"/><path class="cls-2" d="M65,143.45,77.85,139a15.92,15.92,0,0,0,10.09-20.47L50.41,15.94A16.71,16.71,0,0,0,29.27,6.18L16.39,10.59A15.91,15.91,0,0,0,6.3,31.06L43.83,133.69A16.69,16.69,0,0,0,65,143.45Z"/><path class="cls-2" d="M64.25,142.77l12.89-4.42a15.9,15.9,0,0,0,10.08-20.47L49.7,15.25A16.71,16.71,0,0,0,28.56,5.49L15.67,9.91A15.9,15.9,0,0,0,5.59,30.37L43.11,133A16.72,16.72,0,0,0,64.25,142.77Z"/><path class="cls-2" d="M63.54,142.08l12.89-4.42A15.89,15.89,0,0,0,86.51,117.2L49,14.57A16.71,16.71,0,0,0,27.85,4.8L15,9.22A15.89,15.89,0,0,0,4.88,29.68L42.4,132.31A16.71,16.71,0,0,0,63.54,142.08Z"/><path class="cls-2" d="M62.83,141.39,75.72,137A15.9,15.9,0,0,0,85.8,116.51L48.28,13.88A16.72,16.72,0,0,0,27.14,4.11L14.25,8.53A15.89,15.89,0,0,0,4.17,29L41.69,131.62A16.71,16.71,0,0,0,62.83,141.39Z"/><path class="cls-2" d="M62.12,140.7,75,136.28a15.9,15.9,0,0,0,10.09-20.46L47.56,13.19A16.7,16.7,0,0,0,26.43,3.42L13.54,7.84A15.91,15.91,0,0,0,3.45,28.31L41,130.94A16.72,16.72,0,0,0,62.12,140.7Z"/><rect class="cls-1" x="48.8" y="33.24" width="42.56" height="132.41" rx="15.06" transform="translate(-29.17 29.09) rotate(-19.49)"/><rect class="cls-1" x="48.1" y="32.54" width="42.56" height="132.41" rx="15.06" transform="translate(-28.97 28.81) rotate(-19.49)"/><rect class="cls-1" x="47.4" y="31.83" width="42.56" height="132.41" rx="15.06" transform="translate(-28.78 28.54) rotate(-19.49)"/><rect class="cls-1" x="46.7" y="31.13" width="42.56" height="132.41" rx="15.06" transform="translate(-28.58 28.26) rotate(-19.49)"/><rect class="cls-1" x="45.99" y="30.43" width="42.56" height="132.41" rx="15.06" transform="translate(-28.39 27.99) rotate(-19.49)"/><rect class="cls-1" x="45.29" y="29.72" width="42.56" height="132.41" rx="15.06" transform="matrix(0.94, -0.33, 0.33, 0.94, -28.2, 27.71)"/><rect class="cls-1" x="44.59" y="29.02" width="42.56" height="132.41" rx="15.06" transform="translate(-28 27.44) rotate(-19.49)"/><rect class="cls-1" x="43.89" y="28.32" width="42.56" height="132.41" rx="15.06" transform="translate(-27.81 27.16) rotate(-19.49)"/><rect class="cls-1" x="43.18" y="27.62" width="42.56" height="132.41" rx="15.06" transform="translate(-27.61 26.89) rotate(-19.49)"/><rect class="cls-1" x="42.48" y="26.91" width="42.56" height="132.41" rx="15.06" transform="translate(-27.42 26.62) rotate(-19.49)"/><rect class="cls-1" x="41.78" y="26.21" width="42.56" height="132.41" rx="15.06" transform="translate(-27.23 26.34) rotate(-19.49)"/><rect class="cls-1" x="41.08" y="25.51" width="42.56" height="132.41" rx="15.06" transform="translate(-27.03 26.07) rotate(-19.49)"/><rect class="cls-1" x="40.37" y="24.81" width="42.56" height="132.41" rx="15.06" transform="translate(-26.84 25.79) rotate(-19.49)"/><rect class="cls-1" x="39.67" y="24.1" width="42.56" height="132.41" rx="15.06" transform="translate(-26.64 25.52) rotate(-19.49)"/><rect class="cls-1" x="38.97" y="23.4" width="42.56" height="132.41" rx="15.06" transform="translate(-26.45 25.24) rotate(-19.49)"/><rect class="cls-1" x="38.27" y="22.7" width="42.56" height="132.41" rx="15.06" transform="translate(-26.25 24.97) rotate(-19.49)"/><rect class="cls-1" x="37.56" y="22" width="42.56" height="132.41" rx="15.06" transform="translate(-26.06 24.69) rotate(-19.49)"/><rect class="cls-1" x="36.86" y="21.29" width="42.56" height="132.41" rx="15.06" transform="translate(-25.87 24.42) rotate(-19.49)"/><rect class="cls-1" x="36.16" y="20.59" width="42.56" height="132.41" rx="15.06" transform="translate(-25.67 24.14) rotate(-19.49)"/><rect class="cls-1" x="35.46" y="19.89" width="42.56" height="132.41" rx="15.06" transform="translate(-25.48 23.87) rotate(-19.49)"/><rect class="cls-1" x="34.75" y="19.19" width="42.56" height="132.41" rx="15.06" transform="translate(-25.28 23.59) rotate(-19.49)"/><rect class="cls-1" x="34.05" y="18.48" width="42.56" height="132.41" rx="15.06" transform="translate(-25.09 23.32) rotate(-19.49)"/><rect class="cls-1" x="33.35" y="17.78" width="42.56" height="132.41" rx="15.06" transform="translate(-24.9 23.04) rotate(-19.49)"/><rect class="cls-1" x="32.65" y="17.08" width="42.56" height="132.41" rx="15.06" transform="translate(-24.7 22.77) rotate(-19.49)"/><rect class="cls-1" x="31.94" y="16.38" width="42.56" height="132.41" rx="15.06" transform="translate(-24.51 22.49) rotate(-19.49)"/><rect class="cls-1" x="31.24" y="15.67" width="42.56" height="132.41" rx="15.06" transform="translate(-24.31 22.22) rotate(-19.49)"/><rect class="cls-1" x="30.54" y="14.97" width="42.56" height="132.41" rx="15.06" transform="translate(-24.12 21.94) rotate(-19.49)"/><rect class="cls-1" x="29.83" y="14.27" width="42.56" height="132.41" rx="15.06" transform="translate(-23.92 21.67) rotate(-19.49)"/><rect class="cls-1" x="29.13" y="13.57" width="42.56" height="132.41" rx="15.06" transform="translate(-23.73 21.4) rotate(-19.49)"/><rect class="cls-1" x="28.43" y="12.86" width="42.56" height="132.41" rx="15.06" transform="translate(-23.54 21.12) rotate(-19.49)"/><rect class="cls-1" x="27.73" y="12.16" width="42.56" height="132.41" rx="15.06" transform="translate(-23.34 20.85) rotate(-19.49)"/><rect class="cls-1" x="27.02" y="11.46" width="42.56" height="132.41" rx="15.06" transform="translate(-23.15 20.57) rotate(-19.49)"/><rect class="cls-1" x="26.32" y="10.75" width="42.56" height="132.41" rx="15.06" transform="translate(-22.95 20.3) rotate(-19.49)"/><rect class="cls-1" x="25.62" y="10.05" width="42.56" height="132.41" rx="15.06" transform="translate(-22.76 20.02) rotate(-19.49)"/><rect class="cls-1" x="24.92" y="9.35" width="42.56" height="132.41" rx="15.06" transform="matrix(0.94, -0.33, 0.33, 0.94, -22.56, 19.75)"/><rect class="cls-1" x="24.21" y="8.65" width="42.56" height="132.41" rx="15.06" transform="translate(-22.37 19.47) rotate(-19.49)"/></g></g></svg>